<svg xmlns="http://www.w3.org/2000/svg" version="1.1" xmlns:xlink="http://www.w3.org/1999/xlink" xmlns:svgjs="http://svgjs.dev/svgjs" width="1440" height="560" preserveAspectRatio="none" viewBox="0 0 1440 560"><g mask="url(&quot;#SvgjsMask1063&quot;)" fill="none"><rect width="1440" height="560" x="0" y="0" fill="#0e2a47"></rect><path d="M0,457.497C91.514,475.683,197.512,479.453,272.114,423.417C346.162,367.797,346.28,259.703,378.778,172.982C408.677,93.197,458.547,19.677,455.319,-65.465C451.91,-155.368,421.702,-246.44,360.379,-312.271C299.946,-377.147,211.442,-408.41,123.74,-421.421C43.231,-433.365,-33.886,-404.272,-112.28,-382.391C-191.793,-360.198,-275.331,-346.7,-337.705,-292.623C-405.276,-234.04,-452.321,-154.846,-474.627,-68.241C-498.566,24.705,-521.419,133.96,-468.137,213.791C-414.943,293.49,-295.475,283.27,-210.482,327.516C-135.827,366.38,-82.551,441.093,0,457.497" fill="#091b2e"></path><path d="M1440 1077.6C1545.337 1074.0149999999999 1667.4569999999999 1106.9560000000001 1747.262 1038.109 1827.33 969.0360000000001 1787.373 834.883 1832.309 739.1610000000001 1877.991 641.85 2010.594 585.518 2010.1889999999999 478.019 2009.788 371.507 1904.745 297.987 1830.3609999999999 221.75 1759.94 149.574 1686.153 79.40499999999997 1590.403 47.775999999999954 1492.723 15.509999999999991 1387.222 15.159999999999968 1288.084 42.620000000000005 1187.961 70.35199999999998 1084.555 115.95499999999998 1028.483 203.418 974.3910000000001 287.792 1015.633 397.82 997.2080000000001 496.336 977.639 600.968 894.632 694.745 917.132 798.7860000000001 940.844 908.4300000000001 1020.011 1006.7090000000001 1118.996 1059.492 1215.518 1110.961 1330.676 1081.321 1440 1077.6" fill="#133960"></path></g><defs><mask id="SvgjsMask1063"><rect width="1440" height="560" fill="#ffffff"></rect></mask></defs></svg>